<svg xmlns="http://www.w3.org/2000/svg" width="390" height="844" viewBox="0 0 390 844">
  <!-- Background -->
  <rect width="390" height="844" fill="#FFFFFF"/>

  <!-- Status Bar -->
  <text x="36" y="40" font-family="-apple-system,SF Pro Display,sans-serif" font-size="15" font-weight="700" fill="#1F2937">9:41</text>
  <rect x="346" y="30" width="22" height="12" rx="3" fill="none" stroke="#1F2937" stroke-width="1.5"/>
  <rect x="348" y="32" width="14" height="8" rx="2" fill="#1F2937"/>

  <!-- Header -->
  <text x="24" y="82" font-family="-apple-system,Pretendard,SF Pro Display,sans-serif" font-size="20" font-weight="700" fill="#1F2937">완료 목록</text>
  <!-- Trash icon -->
  <rect x="348" y="66" width="16" height="18" rx="2" fill="none" stroke="#6B7280" stroke-width="1.5"/>
  <line x1="344" y1="70" x2="368" y2="70" stroke="#6B7280" stroke-width="1.5" stroke-linecap="round"/>
  <line x1="353" y1="70" x2="353" y2="66" stroke="#6B7280" stroke-width="1.5" stroke-linecap="round"/>
  <line x1="359" y1="70" x2="359" y2="66" stroke="#6B7280" stroke-width="1.5" stroke-linecap="round"/>

  <!-- Summary -->
  <text x="24" y="116" font-family="-apple-system,Pretendard,SF Pro Display,sans-serif" font-size="13" fill="#6B7280">이번 주 완료 5건</text>

  <!-- Completed Card 1 -->
  <rect x="16" y="134" width="358" height="68" rx="12" fill="white" stroke="#E2E8F0" stroke-width="1"/>
  <!-- Check circle -->
  <circle cx="38" cy="160" r="10" fill="#22C55E"/>
  <path d="M33 160 L37 164 L43 157" stroke="white" stroke-width="2" stroke-linecap="round" stroke-linejoin="round"/>
  <text x="60" y="158" font-family="-apple-system,Pretendard,SF Pro Display,sans-serif" font-size="15" font-weight="500" fill="#6B7280" text-decoration="line-through">팀원 피드백 정리</text>
  <text x="60" y="176" font-family="-apple-system,Pretendard,SF Pro Display,sans-serif" font-size="12" fill="#9CA3AF">오늘 14:22</text>
  <!-- Restore button -->
  <rect x="330" y="146" width="36" height="28" rx="8" fill="#EFF6FF"/>
  <text x="348" y="166" font-family="-apple-system,SF Pro Display,sans-serif" font-size="16" fill="#2563EB" text-anchor="middle">&#8617;</text>

  <!-- Completed Card 2 -->
  <rect x="16" y="210" width="358" height="68" rx="12" fill="white" stroke="#E2E8F0" stroke-width="1"/>
  <circle cx="38" cy="236" r="10" fill="#22C55E"/>
  <path d="M33 236 L37 240 L43 233" stroke="white" stroke-width="2" stroke-linecap="round" stroke-linejoin="round"/>
  <text x="60" y="234" font-family="-apple-system,Pretendard,SF Pro Display,sans-serif" font-size="15" font-weight="500" fill="#6B7280" text-decoration="line-through">프로젝트 계획서</text>
  <text x="60" y="252" font-family="-apple-system,Pretendard,SF Pro Display,sans-serif" font-size="12" fill="#9CA3AF">어제</text>
  <rect x="330" y="222" width="36" height="28" rx="8" fill="#EFF6FF"/>
  <text x="348" y="242" font-family="-apple-system,SF Pro Display,sans-serif" font-size="16" fill="#2563EB" text-anchor="middle">&#8617;</text>

  <!-- Completed Card 3 -->
  <rect x="16" y="286" width="358" height="68" rx="12" fill="white" stroke="#E2E8F0" stroke-width="1"/>
  <circle cx="38" cy="312" r="10" fill="#22C55E"/>
  <path d="M33 312 L37 316 L43 309" stroke="white" stroke-width="2" stroke-linecap="round" stroke-linejoin="round"/>
  <text x="60" y="310" font-family="-apple-system,Pretendard,SF Pro Display,sans-serif" font-size="15" font-weight="500" fill="#6B7280" text-decoration="line-through">디자인 검토</text>
  <text x="60" y="328" font-family="-apple-system,Pretendard,SF Pro Display,sans-serif" font-size="12" fill="#9CA3AF">3월 2일</text>
  <rect x="330" y="298" width="36" height="28" rx="8" fill="#EFF6FF"/>
  <text x="348" y="318" font-family="-apple-system,SF Pro Display,sans-serif" font-size="16" fill="#2563EB" text-anchor="middle">&#8617;</text>

  <!-- Completed Card 4 -->
  <rect x="16" y="362" width="358" height="68" rx="12" fill="white" stroke="#E2E8F0" stroke-width="1"/>
  <circle cx="38" cy="388" r="10" fill="#22C55E"/>
  <path d="M33 388 L37 392 L43 385" stroke="white" stroke-width="2" stroke-linecap="round" stroke-linejoin="round"/>
  <text x="60" y="386" font-family="-apple-system,Pretendard,SF Pro Display,sans-serif" font-size="15" font-weight="500" fill="#6B7280" text-decoration="line-through">문서 작성</text>
  <text x="60" y="404" font-family="-apple-system,Pretendard,SF Pro Display,sans-serif" font-size="12" fill="#9CA3AF">2월 28일</text>
  <rect x="330" y="374" width="36" height="28" rx="8" fill="#EFF6FF"/>
  <text x="348" y="394" font-family="-apple-system,SF Pro Display,sans-serif" font-size="16" fill="#2563EB" text-anchor="middle">&#8617;</text>

  <!-- Completed Card 5 -->
  <rect x="16" y="438" width="358" height="68" rx="12" fill="white" stroke="#E2E8F0" stroke-width="1"/>
  <circle cx="38" cy="464" r="10" fill="#22C55E"/>
  <path d="M33 464 L37 468 L43 461" stroke="white" stroke-width="2" stroke-linecap="round" stroke-linejoin="round"/>
  <text x="60" y="462" font-family="-apple-system,Pretendard,SF Pro Display,sans-serif" font-size="15" font-weight="500" fill="#6B7280" text-decoration="line-through">코드 리뷰</text>
  <text x="60" y="480" font-family="-apple-system,Pretendard,SF Pro Display,sans-serif" font-size="12" fill="#9CA3AF">2월 27일</text>
  <rect x="330" y="450" width="36" height="28" rx="8" fill="#EFF6FF"/>
  <text x="348" y="470" font-family="-apple-system,SF Pro Display,sans-serif" font-size="16" fill="#2563EB" text-anchor="middle">&#8617;</text>

  <!-- Hint -->
  <text x="195" y="544" font-family="-apple-system,Pretendard,SF Pro Display,sans-serif" font-size="12" fill="#9CA3AF" text-anchor="middle">&#8592; 스와이프하여 삭제</text>

  <!-- Bottom Nav Background -->
  <rect x="0" y="760" width="390" height="84" fill="#FFFFFF"/>
  <line x1="0" y1="760" x2="390" y2="760" stroke="#E2E8F0" stroke-width="1"/>

  <!-- Bottom Nav: Home -->
  <text x="49" y="788" font-family="-apple-system,SF Pro Display,sans-serif" font-size="20" fill="#9CA3AF" text-anchor="middle">&#8962;</text>
  <text x="49" y="804" font-family="-apple-system,Pretendard,SF Pro Display,sans-serif" font-size="11" fill="#9CA3AF" text-anchor="middle">홈</text>

  <!-- Bottom Nav: Search -->
  <circle cx="146" cy="782" r="8" fill="none" stroke="#9CA3AF" stroke-width="1.5"/>
  <line x1="152" y1="788" x2="156" y2="792" stroke="#9CA3AF" stroke-width="1.5" stroke-linecap="round"/>
  <text x="146" y="804" font-family="-apple-system,Pretendard,SF Pro Display,sans-serif" font-size="11" fill="#9CA3AF" text-anchor="middle">검색</text>

  <!-- Bottom Nav: Completed (active) -->
  <circle cx="244" cy="782" r="7" fill="none" stroke="#2563EB" stroke-width="1.5"/>
  <path d="M240 782 L243 785 L248 780" stroke="#2563EB" stroke-width="1.5" stroke-linecap="round" stroke-linejoin="round"/>
  <text x="244" y="804" font-family="-apple-system,Pretendard,SF Pro Display,sans-serif" font-size="11" fill="#2563EB" text-anchor="middle">완료</text>

  <!-- Bottom Nav: My -->
  <circle cx="341" cy="780" r="6" fill="none" stroke="#9CA3AF" stroke-width="1.5"/>
  <path d="M334 792 C334 788 337 786 341 786 C345 786 348 788 348 792" stroke="#9CA3AF" stroke-width="1.5" stroke-linecap="round"/>
  <text x="341" y="804" font-family="-apple-system,Pretendard,SF Pro Display,sans-serif" font-size="11" fill="#9CA3AF" text-anchor="middle">마이</text>

  <!-- Home Indicator -->
  <rect x="127" y="826" width="136" height="5" rx="2.5" fill="#1F2937" opacity="0.2"/>
</svg>
